<?xml version="1.0" encoding="UTF-8"?>
<svg xmlns="http://www.w3.org/2000/svg" version="1.1" viewBox="0 0 846 960">
  <defs>
    <style>
      .cls-1 {
        fill: none;
      }

      .cls-2 {
        fill: #8885;
      }
    </style>
  </defs>
  <!-- Generator: Adobe Illustrator 28.6.0, SVG Export Plug-In . SVG Version: 1.2.0 Build 709)  -->
  <g>
    <g id="_レイヤー_1" data-name="レイヤー_1">
      <g>
        <path class="cls-1" d="M0,782.2V-171.5c1086.5-100.5,858,126.6,854.2,882.9-.4,76.4-14.3,157.8-8.2,245.3-11.4,0-19.4,2.2-19.9-11.8-2.6-14.8-10.2-28.2-16.2-41.7-16-44.7-30.5-90.5-55-131.9-24.7-47.6-17.3-53.6-68.4-79.6-26.2-12.5-57.4-17.2-86.1-21.9-10.8-1.5-19.6-9.4-30.9-8.4-16.4-.3-28.3-12.8-44.7-13.8-24.6-10,0-38.9,9.3-52.4,7.6-15.4,10.1-33.4,18-48.9,9.7-16.3,18.1-37,25.9-54.1,33.3-14.7,47.9-19.1,68.5-52.4,6.3-10.7,29.4-34.4,16.6-44.7-38.1-16-34.5-21-27.8-59.5,14.6-12.9,7.1-26.6,6.4-43.8-5.6-21.5,1.5-44.9-4.4-66.5-2.6-6.5,6-1.6,2.9-7.1-5.6-21.5-21.6-37.1-31.8-56.2-3-10.8-8.4-20.7-11.1-30.9-13-14.1-24.6-30.6-42.1-39.3-16-5.7-26.8-21.1-43.8-23.6-9.9-3-21.2-1-30.2-6.6-14.7-8.1-32.1-2.5-48.1-2.5-15.9-2-8.4-12-30.8-1.9-14.8,5.1-32.3-5-44.8,8.4-7.2,9.3-12.8,3.7-19.3,6.4-3.9,5.9-9,9.3-16.2,8.8-7.7,2.3-14.6,7.4-22.6,9.3-30.4,8.8-27.8,35.1-47.4,47.8-36,24.8-79.1,51-88.5,96.6,11.1-16.6,19.9-45.6,42.2-48.3-2.1,18.1-20.4,32.7-27.9,49.2.4,5.4-5.9,7.4-6.4,11.9-.3,16-16.2,26.9-17.2,43.3-14.4,43.6-20.5,89.3,1.4,131.5,1.2,4.7,3.8,8.3,8.3,10.6,9.4,7.9,15.4,19.6,24.8,27.8,8.5,8-.9,7.7-5.5,10.3,15.7,4.5,19.3,25,16.4,40,0,4.7,6.9,5.8,6.8,11.3,1.2,4.5,1.2,4.6,5.7,4.8,18.9,12.9-14.3,18.1-24.6,15.9,13.3,8.3,35.7-13.6,33.3,1.6-1.1,13.1,9,26.6,20.3,32.2,5.7-1,1,20.5,1.5,25,.4,13.3-9.5,20.4-14.7,30.7-1.2,6.4-6.2,8.1-11,10.1-15.4,6-23.8,22.1-35.8,32.3-11.5,7.4-19.7,18.7-30.4,26.9-17.3,9.6-36.9,16.2-54.8,25.2-19.7,12.1-38.7,25.4-59.8,34.9-8.5,9.1-21.9,9.8-30.8,18-1.2,1.5-2.7,3.6-5.4,2.7Z"/>
        <path class="cls-2" d="M747.9,776"/>
        <path class="cls-2" d="M44.4,956.6c3.5-2.3,14.5-2.3,17.9,0h-17.9Z"/>
        <g>
          <path class="cls-2" d="M249.9,759.2c7.2,9.8,14.3,19.8,20.5,30.3-4.4-9.8-12.1-19.9-20.5-30.3Z"/>
          <path class="cls-2" d="M425.9,859.6c22-10.3,25.6-33.3,34.1-53.4l-3-.8c-7.9,17.2-18.7,32.9-33.4,45.2-33.6,26.1-8,44.8-62.8,26.4,9.4,5.5,38.7,11.1,38.2,24.3.2,3.1-2.1,9.5,2.1,10.6-8.7-11.5,13.5-17.1,11.8-28.4-.4-10.6,4-18.5,13-24Z"/>
        </g>
        <path class="cls-2" d="M227.2,730.4c-14-25.9-25.1-59.8-13.5-88.2,8.3-1.6,29.7-50.1,28.5-59.6,7.6-2.8-1.2,57.8-15.3,71-25.7,39.2,29.9,96.3,39.8,130.6"/>
        <path class="cls-2" d="M515.5,630.4c-6.8-.1-4.4-11.4-.8-17.5,1.1-1.8,0-4-2.1-4.4-5.5-.9-11.4,0-16.8.8-16.8,2.9-76-6.9-88.7-2-33.6,13-15.6-3.6,4.4-7.5,21.9-.6,44-2,65.9-1.2,20.4,6.2,38.5-4,57.6-10.4,10.1-.1-22,32.5-19.6,42.2Z"/>
        <path class="cls-2" d="M182.5,226.1"/>
        <path class="cls-2" d="M193.6,191.8"/>
        <path class="cls-2" d="M724.5,714c-.4-.2-.6-.4-.6-.8.4.2.6.4.6.8Z"/>
        <path class="cls-2" d="M827.3,946.1c-.3-.2-.4-.4-.3-.8.3.2.4.4.3.8Z"/>
        <path class="cls-2" d="M551.3,712.6c-11.7-57.4,12.9,26.6,16.3,41.2,10.4,30.8,24.7,60.2,34.4,91.3,8,25.2,11.2,51.4,16.2,77.2,4.5,14.9-3.5,28.5,18.4,25.8h0c.7,1.2,2.9-.2,3.7,1-3.6,1.8-6.8-1.9-9.9.3-2.3,1.9-3-1.5-4.9-1.5-10.3,5.6-6.2-15.7-8.6-21.4-2.2-3.3,1.5-7.4-1-10.5-5.5-11.3-5.1-25.9-7.9-38.5-9.7-47.4-55.3-115.7-56.5-165Z"/>
        <path class="cls-2" d="M196.5,928c-7.6-9-29.1-6.4-14.2-2.5,6.4,2.1,14.7,4.7,17.3,11.3-7.5-3.9-16.4-3.9-25-4.1-11.5-3.4-16.9-16.4-31-4.9-6,3.2,4.1,12.8-4.5,6.3-11.3-7,.8-13.8,7.1-19.1,4-2.7,9.3.3,13.9-.5,14.5-1.7,32.1-4.4,36.3,13.7h0Z"/>
        <path class="cls-2" d="M509,547.3c-20.1.9-33.9-17.5-54.5-12.2-12.7,2.5-19.1-24.8-12.2-12,5.1,12.1,18.2,5.5,27.8,5.1,13.8,1.2,24.7,12.4,39,11.3,8.4,1.4,16.7-1.1,24.4-3.9-4.9,7.6-15.4,11.4-24.5,11.7Z"/>
        <path class="cls-2" d="M368.9,934.7c-2.7-.1-4.8.6-6.8-1.2-.9-5.7,9.8-1.6,12.6-4.4-8.3-1.8-18-3.5-25.9-7.6,5.8-3.2,15.5,4.3,22.2,5.6,12.3,2.2,25-4.3,37.1-.7-7.7,8.3-27.3,7.4-39.2,8.3Z"/>
        <path class="cls-2" d="M641,913.1c1.7-37.5,6.2,19.7,6.8,31.1-3.4,6.4-7.2-26.6-6.8-31.1Z"/>
        <path class="cls-2" d="M655.7,890.7c4.6-36.9,7.3,6.6,6.3,17.5-3,3.2-6.6-13.6-6.3-17.5Z"/>
        <path class="cls-2" d="M180.2,860.9c-12.1-.5,25.1-12.6,29.5-12.4-5.1,6.4-20,11.2-29.5,12.4Z"/>
        <path class="cls-2" d="M140.7,873.3c-18.5-4.4,10.6-6.8,15.4-7.5-.8,4.3-10.5,7.1-15.4,7.5Z"/>
        <path class="cls-2" d="M236.7,946.7c6.2-3.7,23.8-5.9,34.1-7.9-4,10.1-24.4,4.2-34.1,7.9Z"/>
        <path class="cls-2" d="M213.8,951.3c-.1,2.2-2.6-.1-1.2-1.1.6-.3,1.2.5,1.2,1.1Z"/>
        <path class="cls-2" d="M551.3,712.6c.4,0,1.1,0,1.2.6-.2.6-1.3,0-1.2-.6Z"/>
        <path class="cls-2" d="M197,929.5c-1.1-1.6.2-1.8,0,0h0Z"/>
        <path class="cls-2" d="M270.7,790.1c.1,0,.2.1.3.2-.2,0-.2-.3-.3-.2Z"/>
        <path class="cls-2" d="M196.9,929.5h.3c-.1,0-.2,0-.3,0Z"/>
        <path class="cls-2" d="M516.4,415.4"/>
        <path class="cls-2" d="M194.9,209.8"/>
        <path class="cls-2" d="M560.4,739.7"/>
        <path class="cls-2" d="M556.6,725.1c-.8-.7-1.3-2.7-.3-3.3.7.6.1,2.3.3,3.3Z"/>
        <path class="cls-2" d="M557.4,727.3v-.8c1.1,0,.3,4,0,.8Z"/>
        <path class="cls-2" d="M559,734.6c-.3-.3-.3-.6,0-1,.3.4.3.7,0,1Z"/>
        <path class="cls-2" d="M557.4,726.4c-.5-.3-.7-.8-.7-1.3.5.3.7.8.7,1.3Z"/>
        <path class="cls-2" d="M500.3,337.9c0,0,0-.2.1-.2,0,0-.2.2-.1.2Z"/>
        <path class="cls-2" d="M761.1,890.5c-8.2-9.5-12.8,4.5-16.6,10.3-10.3,7.1-26.1,33.2-3.9,34,.5.2,2.3.4,1.6-.8-11.8-11.7,2.2-22.5,14.9-21.3,10.3-2.3,9.2-15.5,4.1-22.2ZM753.2,898.4c-2.9-5.1,4.1-12,4-3,.4,3.9-3.7,10.5-4,3Z"/>
        <path class="cls-2" d="M632.9,370.8c-.5-27.4,14.1-52.5,17.2-79.5,2.7-23.4-.2-50.4-5.6-73.3-10.6-45.5-39.3-87.4-75.6-117.1-47.7-38.9-132.5-64.8-193.6-57-77.9,9.9-146,44.4-196.3,102-16,18.3-53.5,76.2-50.7,91.8,11.6-17.8,18.7-26.2,29.9-36.3-19.1,21.9-28,68-31.7,91.2-9,26.4-2.5,72.9,4.5,100.2,3,11.9,31,55.1,36.6,66.5s17.7,32.2,20.9,38.7c3.3,6.7,10.5,18.2,7.4,27.9-2,6.3-9.6,12.8-23.8,16.1,11.4,5.3,35.3,6.4,40.8,17.2,6.6,13.2,16.4,18.6,19.9,21.5,24.8,20,6.2-64.9,9.4-76.4-.2-7.5,5-13.4,6-20.3.9-.6,1.8,21.7,4.3,32.2,4.5,51.6,27.9,93.1,68.8,124.9,23.8,25.7,50.9,64.7,89.8,60.4,13.8,2.8,25.2,1.1,37.4-4.9,9.8-5.6,25.3-.9,27.7-14.9,4,2.5,2.5,13.7,3,18.9-2.7,26.3-5.5,53.3-12.7,78.7-6.9,18.2-17.3,34.7-25.6,52.3-8.8,15.6-29.1,21.2-35.9,38.2-5.3,26.1-32,6.7-48.2,5.6,8.6,6.8,21.5,7.7,30.7,14,.5.3.2.7,0,1.1-.6,1,1.2,1.3,1.9,1.6,12.1,1,7.2,11,8.7,19,2.4,4,10.5-1,1.8-.6-2.5-12.4,14.3-14.6,13.5-25.8-2.7-20.3,19.1-25.6,29.9-38.3,13.5-25.3,23.2-53.4,34.4-80,7-26.7,6.1-54.5,10.2-81.5,7.7-13.9,24.7-30.3,19.8-46.9-8.1,17.2-17.7,34.9-38.5,38.1-17.7,4.2-33.1,18.4-52.1,12.4-30.9,1.5-46.2-23.8-67.7-40.5-31.3-26.2-61.4-55.4-75.3-94.9-13.1-26.9,2.8-60.7,1.8-88.4,6.2-19.7-1.2-40.1,2.4-59.7,5-8.3,8.9-15.7,9.9-25.2,10.4-10.6,26.3,6.2,35.2,12.7,25.2,25.6,9.5,77.3,47.4,93.8,111.6,41.5,130.2-80,152.9-47.3,9.2,39.7,3.6,56.7,52.9,54.7,16.6-1.3,22.9-6.3,36-14,23.4-21.1,44.7-48.3,55.4-78.1,0-15-39.5-14.1-35.4-31ZM251.4,280.4c-6.3-2.1-3.3-45.5-6.5-46.8-4.8-1.9-20,56.8-25.4,65.2-3.4-6.6-15.1-34.3-12.5-36-5.5,3.6-4.1,40.3-8.1,47.3-1.9,3.3-33.2-11.2-40.2,24.5,7.5,48.1-9.9,86.7,35.4,122.7,43.8,31.7,40.4-10.8,45.5,61.8.4,6.3,4.9,36.5,1,41.8-4.5,6.1-29.1-38-31.2-48.1-1.9-8.9-23.2-52.6-29.1-60.2-8.5-11.1-30.7-54.3-32.5-60.8-18.5-69.5-5.1-134.7,19.9-178.7,31.4-55.1,71.6-93.2,97.2-109.9,28.6-18.7,74.7-35.8,108.1-42.9,35.3-7.6,76.5,2.6,111,13.3,48.6,15.1,88.7,50.1,107.7,67.9,11.7,10.9,21.5,32.4,19.5,42.2-2.2,11-6.8,22.2-13.6,31.2,3.1-4-9.3-26-12.3-29-.9,3.8-1,49.9-7.2,43.4-5.7-6-75.3-58.4-81.5-28.3-1,4.9-2.7,9.7-2.9,14.7-1.8,35.9-21.5-15.2-24.5-24.6-2.8-8.7-10.1-16.4-16.1-23.6-13.1-16.1-26.7,4.8-45.4,21.1-11.4,9.9-.8-11.6-1.9-16.5-5.1-20.4-30.3,22-31.4,26.7-5.1,22-38.5,56.6-53.5,55.5-6.2-5.3-.5-15.2-4.3-21.1-5.9-9.1-30-30.4-65.2,47.2ZM170.5,367.5c1.2-16.2-11.6-48.9,14.2-49.7,19-1.3,17.1,40,17.2,53.3-6.8,9.5-17,18.1-11.3,31.6.6,15.6,80.4,65.2,33.3,65.2-24.6-.8-43.3-25.5-53-46-7.1-17.7.3-36.2-.3-54.4ZM219,419.1c-6.7-8.6-15.9-1.1-18.8-21.6,7.7-34.8,22.7,8,18.8,21.6ZM480.6,439.5c-19.5,39.9-55,47.2-89.3,39.8-21.9-1.3-37.7-18.5-34.5-40.7.6-9.2,3.1-25.1,11-33.6,28.5-27.9,42.2-20,84.8-13.1,35.8,5.8,44.1,12.6,28,47.6ZM533.9,398.6c-19.8,6.6-37.5-7.7-55.4-13.9-17.1-6.3-35.1-9.5-53-12.6-38.3-9.6-91.9,1.5-116.7-35-2.2-7,26.2-8.8,31.8-19.5,7.3-8.3,16.9-13.7,25.4-20.6,6.2-4.3,21.3-22.5,10.1-1.8-28.9,44.8-44.5,49.6,20.1,50.7,24.5-1.8,43.1,22.3,67.7,17.3,11-9,22.5-17.7,34.9-24.5-40.9,19.8-53.2,1.7-30.6-40.2,6.4-11.9,13.5-27.1,24.1-35.6,3.8,5.3-6.1,57.3-26.2,75.8,7,1,52.1-15,75.1-38.6,1.4,5.7-21.4,36.8-8.1,30.6,12-5.1,50.5-30.5,53.7-35-.4,10.4-.4,20.7.9,31,20.7,32.6-36.7,21.4-44.7,45.5-13.4,25.5-6.3,13.2,15.8,8.6,11.7-2.8,23.1-12.6,35.4-10,8.1,4.4,2.6,17-5.3,18.2-18.6,1.4-37.2,3.7-55.1,9.7ZM637.2,418.2c-10,43.9-40.8,63-73.4,63-29.8,3.8-28.3-39.9-19.6-56.1,5.5-6.5,8.2-11.5,18.5-15.2,13.7-4.9,27.1-8.5,47.7-5.5,8.5.9,28.1,4.6,26.8,13.9Z"/>
      </g>
    </g>
  </g>
</svg>